<svg width="226" height="112" viewBox="0 0 226 112" fill="none" xmlns="http://www.w3.org/2000/svg">
<path d="M72.5882 9.06556L79.945 22.2714L72.1869 35.7089L57.0718 35.9406L49.7149 22.7348L57.4731 9.29724L72.5882 9.06556Z" fill="#E62154"/>
<path d="M66.1466 59.8467L69.2964 50.3972L61.8156 51.5784L59.847 66.9338L64.5717 66.1463L61.8156 78.7456L72.84 59.0592L66.1466 59.8467Z" fill="#E62154"/>
<path d="M168.658 9.06556L176.015 22.2714L168.256 35.7089L153.141 35.9406L145.785 22.7348L153.543 9.29724L168.658 9.06556Z" fill="#E62154"/>
<path d="M162.216 59.8467L165.366 50.3972L157.885 51.5784L155.917 66.9338L160.641 66.1463L157.885 78.7456L168.91 59.0592L162.216 59.8467Z" fill="#E62154"/>
<path d="M29.5107 9.06559L36.8676 22.2714L29.1094 35.709L13.9944 35.9407L6.63753 22.7348L14.3957 9.29727L29.5107 9.06559Z" fill="#E62154"/>
<path d="M19.4374 48.1505C20.1449 46.5781 22.3775 46.5781 23.0851 48.1505L25.2418 52.9431C25.5291 53.5815 26.1293 54.0233 26.8243 54.1077L32.0201 54.7392C33.7001 54.9434 34.3829 57.0118 33.1547 58.1761L29.2472 61.8799C28.7511 62.3501 28.5296 63.0411 28.6596 63.7121L29.6867 69.0101C30.0125 70.6911 28.2131 71.9776 26.7279 71.1255L22.2565 68.56C21.6401 68.2064 20.8823 68.2064 20.2659 68.56L15.7945 71.1255C14.3094 71.9776 12.5099 70.6911 12.8358 69.0101L13.8628 63.7121C13.9929 63.0411 13.7713 62.3501 13.2752 61.8799L9.36778 58.1761C8.13952 57.0118 8.82237 54.9434 10.5024 54.7392L15.6981 54.1077C16.3931 54.0233 16.9934 53.5815 17.2807 52.9431L19.4374 48.1505Z" fill="#E62154"/>
<rect x="2" y="2" width="39" height="86" stroke="#FDBC15" stroke-width="4"/>
<path d="M125.58 9.06559L132.937 22.2714L125.179 35.709L110.064 35.9407L102.707 22.7348L110.465 9.29727L125.58 9.06559Z" fill="#E62154"/>
<path d="M115.507 48.1505C116.215 46.5781 118.447 46.5781 119.155 48.1505L121.312 52.9431C121.599 53.5815 122.199 54.0233 122.894 54.1077L128.09 54.7392C129.77 54.9434 130.453 57.0118 129.224 58.1761L125.317 61.8799C124.821 62.3501 124.599 63.0411 124.729 63.7121L125.756 69.0101C126.082 70.6911 124.283 71.9776 122.798 71.1255L118.326 68.56C117.71 68.2064 116.952 68.2064 116.336 68.56L111.864 71.1255C110.379 71.9776 108.58 70.6911 108.906 69.0101L109.933 63.7121C110.063 63.0411 109.841 62.3501 109.345 61.8799L105.438 58.1761C104.209 57.0118 104.892 54.9434 106.572 54.7392L111.768 54.1077C112.463 54.0233 113.063 53.5815 113.35 52.9431L115.507 48.1505Z" fill="#E62154"/>
<rect x="98" y="2" width="39" height="86" stroke="#FDBC15" stroke-width="4"/>
<path d="M212.988 9.06559L220.345 22.2714L212.587 35.709L197.472 35.9407L190.115 22.7348L197.873 9.29727L212.988 9.06559Z" fill="#E62154"/>
<path d="M202.915 48.1505C203.622 46.5781 205.855 46.5781 206.562 48.1505L208.719 52.9431C209.006 53.5815 209.607 54.0233 210.302 54.1077L215.497 54.7392C217.177 54.9434 217.86 57.0118 216.632 58.1761L212.725 61.8799C212.228 62.3501 212.007 63.0411 212.137 63.7121L213.164 69.0101C213.49 70.6911 211.69 71.9776 210.205 71.1255L205.734 68.56C205.117 68.2064 204.36 68.2064 203.743 68.56L199.272 71.1255C197.787 71.9776 195.987 70.6911 196.313 69.0101L197.34 63.7121C197.47 63.0411 197.249 62.3501 196.753 61.8799L192.845 58.1761C191.617 57.0118 192.3 54.9434 193.98 54.7392L199.175 54.1077C199.87 54.0233 200.471 53.5815 200.758 52.9431L202.915 48.1505Z" fill="#E62154"/>
<rect x="185" y="2" width="39" height="86" stroke="#FDBC15" stroke-width="4"/>
<path d="M102.998 94.9436C102.967 94.3922 102.495 93.9704 101.944 94.0016L92.9579 94.5094C92.4065 94.5406 91.9848 95.0128 92.0159 95.5642C92.0471 96.1156 92.5194 96.5374 93.0708 96.5062L101.058 96.0548L101.509 104.042C101.541 104.593 102.013 105.015 102.564 104.984C103.116 104.953 103.537 104.481 103.506 103.929L102.998 94.9436ZM40.2197 95.6254C47.5442 104.765 55.1444 109.412 62.4708 111.16C69.7887 112.907 76.7231 111.735 82.6797 109.433C88.6311 107.133 93.6421 103.691 97.1562 100.839C98.916 99.4104 100.307 98.1237 101.261 97.1918C101.738 96.7257 102.106 96.3478 102.356 96.0848C102.482 95.9533 102.577 95.8504 102.643 95.7795C102.675 95.7441 102.7 95.7167 102.717 95.6976C102.726 95.6881 102.733 95.6807 102.738 95.6754C102.74 95.6728 102.742 95.6707 102.743 95.6691C102.744 95.6683 102.745 95.6676 102.745 95.6672C102.745 95.6666 102.746 95.6661 102 95C101.254 94.3339 101.254 94.3337 101.254 94.3336C101.254 94.3338 101.254 94.3339 101.254 94.3342C101.253 94.3348 101.252 94.336 101.251 94.3377C101.248 94.3411 101.243 94.3467 101.236 94.3543C101.222 94.3696 101.2 94.3932 101.171 94.4248C101.113 94.488 101.025 94.5828 100.907 94.7062C100.673 94.953 100.322 95.3134 99.8634 95.7613C98.9463 96.6575 97.6007 97.9021 95.8957 99.2861C92.4803 102.059 87.651 105.367 81.9588 107.567C76.2718 109.765 69.7594 110.843 62.935 109.215C56.1191 107.588 48.8815 103.235 41.7803 94.3746L40.2197 95.6254Z" fill="#FDBC15"/>
<path d="M192.998 94.9436C192.967 94.3922 192.495 93.9704 191.944 94.0016L182.958 94.5094C182.407 94.5406 181.985 95.0128 182.016 95.5642C182.047 96.1156 182.519 96.5374 183.071 96.5062L191.058 96.0548L191.509 104.042C191.541 104.593 192.013 105.015 192.564 104.984C193.116 104.953 193.537 104.481 193.506 103.929L192.998 94.9436ZM130.22 95.6254C137.544 104.765 145.144 109.412 152.471 111.16C159.789 112.907 166.723 111.735 172.68 109.433C178.631 107.133 183.642 103.691 187.156 100.839C188.916 99.4104 190.307 98.1237 191.261 97.1918C191.738 96.7257 192.106 96.3478 192.356 96.0848C192.482 95.9533 192.577 95.8504 192.643 95.7795C192.675 95.7441 192.7 95.7167 192.717 95.6976C192.726 95.6881 192.733 95.6807 192.738 95.6754C192.74 95.6728 192.742 95.6707 192.743 95.6691C192.744 95.6683 192.745 95.6676 192.745 95.6672C192.745 95.6666 192.746 95.6661 192 95C191.254 94.3339 191.254 94.3337 191.254 94.3336C191.254 94.3338 191.254 94.3339 191.254 94.3342C191.253 94.3348 191.252 94.336 191.251 94.3377C191.248 94.3411 191.243 94.3467 191.236 94.3543C191.222 94.3696 191.2 94.3932 191.171 94.4248C191.113 94.488 191.025 94.5828 190.907 94.7062C190.673 94.953 190.322 95.3134 189.863 95.7613C188.946 96.6575 187.601 97.9021 185.896 99.2861C182.48 102.059 177.651 105.367 171.959 107.567C166.272 109.765 159.759 110.843 152.935 109.215C146.119 107.588 138.881 103.235 131.78 94.3746L130.22 95.6254Z" fill="#FDBC15"/>
</svg>
